<?xml version="1.0" standalone="no"?>
<!DOCTYPE svg PUBLIC "-//W3C//DTD SVG 20010904//EN"
 "http://www.w3.org/TR/2001/REC-SVG-20010904/DTD/svg10.dtd">
<svg version="1.0" xmlns="http://www.w3.org/2000/svg"
 width="300.000000pt" height="300.000000pt" viewBox="0 0 300.000000 300.000000"
 preserveAspectRatio="xMidYMid meet">
<metadata>
Created by potrace 1.10, written by Peter Selinger 2001-2011
</metadata>
<g transform="translate(0.000000,300.000000) scale(0.100000,-0.100000)"
fill="#000000" stroke="none">
<path d="M1375 2511 c-86 -14 -138 -31 -201 -67 -118 -65 -186 -175 -201 -326
-5 -48 -4 -48 25 -48 29 0 30 2 41 61 35 201 200 313 456 310 133 -1 234 -39
311 -119 58 -60 98 -153 96 -224 -1 -25 3 -28 34 -28 40 0 41 8 20 106 -34
161 -130 265 -288 313 -77 23 -219 34 -293 22z m65 -37 c6 -6 -5 -8 -30 -6
-22 2 -38 7 -36 11 6 10 55 6 66 -5z m220 -14 c24 -15 7 -18 -20 -3 -14 7 -18
13 -10 13 8 0 22 -4 30 -10z m-403 -27 c-3 -3 -11 -2 -17 2 -9 6 -9 10 1 16
14 8 27 -7 16 -18z m-42 -12 c-3 -6 -14 -11 -23 -11 -13 0 -13 2 4 14 21 15
30 14 19 -3z m-95 -66 c-7 -8 -17 -15 -23 -15 -6 0 -2 8 9 19 22 21 33 19 14
-4z"/>
<path d="M1455 2355 c-31 -30 -31 -50 -2 -78 19 -20 22 -31 19 -82 -2 -33 0
-84 3 -113 6 -46 10 -55 33 -63 19 -7 32 -7 44 0 10 6 23 8 31 5 20 -7 17 -30
-5 -31 -10 -1 -18 2 -18 7 0 6 -11 5 -26 0 -17 -7 -23 -7 -19 0 4 7 -3 8 -21
4 -22 -6 -26 -4 -21 9 6 15 -17 32 -32 23 -4 -3 -7 19 -7 49 1 46 -3 58 -27
83 -22 23 -27 35 -21 56 14 56 -43 94 -97 66 -43 -23 -13 -110 38 -110 11 0
32 -12 47 -26 20 -21 26 -36 26 -73 l0 -46 -172 3 c-223 4 -270 -2 -311 -38
l-32 -28 0 -170 0 -169 28 -41 c48 -69 76 -77 284 -80 178 -3 182 -3 232 22
63 32 86 32 145 1 45 -24 55 -25 220 -25 193 0 219 6 274 62 45 47 52 81 52
241 0 226 -3 228 -317 227 l-218 -1 3 27 c5 38 33 74 53 68 26 -7 69 34 69 66
0 31 -30 60 -62 60 -32 0 -61 -38 -55 -73 3 -25 -1 -37 -21 -55 -20 -19 -24
-30 -19 -62 4 -35 3 -38 -19 -36 -24 1 -24 2 -24 110 0 103 1 109 25 128 33
25 32 61 -1 87 -34 27 -50 26 -79 -4z m61 -30 c4 -8 0 -22 -7 -31 -11 -13 -14
-13 -27 0 -17 17 -9 46 13 46 9 0 18 -7 21 -15z m-166 -84 c0 -19 -23 -35 -34
-24 -14 15 -5 43 14 43 13 0 20 -7 20 -19z m323 -35 c9 -22 -19 -42 -37 -26
-19 15 -10 40 14 40 10 0 20 -6 23 -14z m-249 -195 c3 -5 -1 -11 -9 -15 -9 -3
-15 0 -15 9 0 16 16 20 24 6z m607 -51 c18 -10 19 -23 19 -166 l0 -156 -29
-29 c-16 -16 -40 -29 -53 -29 -278 -4 -337 -1 -374 19 -51 28 -127 28 -178 0
-35 -18 -56 -20 -210 -20 -94 0 -183 4 -197 9 -51 20 -59 47 -59 211 0 132 2
151 18 160 24 14 1036 15 1063 1z"/>
<path d="M1517 1899 c-13 -8 -17 -18 -12 -38 4 -21 -1 -33 -26 -56 l-31 -30 7
51 c7 58 -1 70 -41 60 -17 -5 -24 -13 -24 -31 0 -14 5 -25 10 -25 6 0 10 -9
10 -20 0 -10 14 -35 30 -53 22 -25 30 -45 30 -71 0 -25 4 -36 15 -36 18 0 21
80 4 97 -9 9 1 25 40 63 28 29 51 55 51 60 0 7 -33 40 -41 40 -2 0 -12 -5 -22
-11z"/>
<path d="M1602 1818 c-6 -6 -12 -19 -12 -28 0 -9 -11 -27 -25 -40 -31 -29 -37
-104 -8 -98 12 2 20 16 24 40 6 40 25 64 55 70 28 5 27 62 -1 66 -11 1 -26 -3
-33 -10z"/>
<path d="M1034 1469 c-8 -13 62 -141 102 -187 19 -22 62 -59 95 -81 238 -159
548 -78 683 178 44 84 46 99 9 93 -23 -3 -34 -16 -56 -64 -33 -67 -116 -155
-179 -188 -62 -32 -146 -47 -232 -39 -139 11 -274 103 -341 231 -20 39 -36 58
-52 61 -13 2 -26 0 -29 -4z"/>
<path d="M770 983 c-23 -8 -70 -55 -86 -85 -45 -87 23 -208 125 -224 75 -12
162 44 181 117 20 72 -16 150 -82 185 -26 14 -108 18 -138 7z m94 -57 c44 -18
66 -52 66 -99 0 -52 -45 -97 -97 -97 -38 0 -92 44 -94 77 -4 67 11 100 54 118
40 18 32 17 71 1z"/>
<path d="M1088 973 c-58 -36 -55 -116 5 -147 18 -8 51 -20 75 -26 52 -13 64
-36 33 -61 -27 -22 -65 -17 -98 14 -19 17 -27 19 -48 9 -22 -10 -24 -15 -15
-32 36 -68 179 -73 224 -8 39 56 8 110 -79 137 -66 21 -86 40 -66 65 19 22 53
20 85 -5 23 -18 31 -20 52 -10 21 9 23 14 14 31 -25 47 -128 66 -182 33z"/>
<path d="M1340 835 l0 -155 33 0 32 0 0 110 c0 61 -3 110 -7 110 -5 0 -8 -9
-8 -20 0 -13 -5 -18 -15 -14 -15 6 -11 60 6 79 10 10 39 -14 42 -36 2 -8 6
-20 10 -26 6 -9 3 -11 -9 -6 -15 5 -13 -1 8 -38 51 -89 63 -109 68 -109 6 0
83 117 92 141 4 10 3 21 -2 24 -6 4 -10 12 -10 18 0 7 4 6 10 -3 8 -13 10 -13
10 1 0 9 6 22 14 28 11 9 15 8 20 -5 11 -29 7 -64 -9 -64 -12 0 -15 -15 -15
-72 0 -40 -3 -83 -6 -95 -6 -21 -3 -23 30 -23 l36 0 0 155 0 155 -34 0 c-36 0
-38 -2 -103 -109 -27 -45 -34 -51 -40 -35 -4 10 -25 47 -46 82 -36 56 -42 62
-73 62 l-34 0 0 -155z"/>
<path d="M1831 968 c-5 -13 -32 -81 -60 -152 -28 -71 -51 -131 -51 -132 0 -2
16 -4 35 -4 30 0 35 4 43 33 8 32 8 32 75 33 l66 1 11 -34 c10 -29 16 -33 46
-33 41 0 44 -16 -29 170 l-54 135 -36 3 c-31 3 -38 -1 -46 -20z m69 -27 c3 -1
-1 -5 -9 -10 -14 -9 -7 -40 24 -122 4 -11 -5 -14 -41 -14 -50 -1 -48 -5 -19
74 11 30 13 47 5 56 -12 15 -4 24 18 20 9 -2 19 -4 22 -4z m65 -171 c-3 -4 0
-11 5 -13 6 -3 5 -4 -2 -3 -7 1 -15 11 -16 21 -3 11 0 15 7 10 6 -3 9 -10 6
-15z"/>
<path d="M2080 835 l0 -155 35 0 35 0 0 63 c0 86 -10 137 -26 137 -15 0 -18
28 -6 47 11 18 28 2 35 -33 3 -18 27 -61 52 -95 25 -35 54 -76 63 -91 13 -21
25 -28 50 -28 l32 0 0 155 0 155 -30 0 -30 0 0 -101 c0 -86 2 -100 15 -95 12
4 15 -2 15 -28 0 -29 -3 -33 -20 -29 -11 3 -20 10 -21 17 0 6 -2 21 -3 33 -1
11 -33 62 -70 112 -58 78 -72 91 -97 91 l-29 0 0 -155z"/>
<path d="M677 574 c-6 -6 28 -93 43 -108 10 -10 32 34 46 88 11 45 -17 27 -31
-20 l-12 -39 -12 43 c-11 40 -20 50 -34 36z"/>
<path d="M1044 533 c-11 -27 -20 -51 -22 -55 -2 -5 3 -8 12 -8 9 0 16 5 16 10
0 16 32 12 53 -7 20 -18 20 -17 13 11 -11 47 -34 96 -44 96 -5 0 -18 -21 -28
-47z m35 -22 c-15 -5 -22 6 -14 19 6 9 10 9 16 -1 5 -8 4 -15 -2 -18z"/>
<path d="M1155 572 c-10 -10 -5 -102 5 -102 6 0 10 9 10 20 0 25 17 26 25 1 7
-22 35 -36 35 -18 0 7 -5 18 -12 25 -8 8 -8 15 2 26 18 23 6 43 -29 48 -17 3
-33 2 -36 0z m45 -32 c0 -5 -7 -10 -15 -10 -8 0 -15 5 -15 10 0 6 7 10 15 10
8 0 15 -4 15 -10z"/>
<path d="M1418 569 c-26 -14 -22 -38 7 -51 33 -15 32 -32 -1 -24 -19 5 -25 3
-22 -6 6 -17 46 -22 63 -8 18 15 9 37 -24 55 l-26 14 28 1 c30 0 36 14 11 24
-19 7 -15 8 -36 -5z"/>
<path d="M1522 565 c-24 -18 -30 -63 -10 -83 21 -21 66 -14 83 12 12 18 13 30
6 50 -6 14 -15 26 -20 26 -5 0 -15 2 -23 5 -7 3 -23 -2 -36 -10z m53 -45 c0
-33 -40 -41 -50 -11 -9 28 2 43 28 39 16 -2 22 -10 22 -28z"/>
<path d="M1664 572 c-29 -3 -30 -5 -31 -52 0 -36 3 -50 13 -50 8 0 14 9 14 20
0 13 7 20 20 20 11 0 20 5 20 10 0 6 -9 10 -20 10 -11 0 -20 5 -20 10 0 6 9
10 19 10 20 0 37 16 24 22 -5 2 -22 2 -39 0z"/>
<path d="M1730 563 c0 -7 7 -13 15 -13 11 0 15 -11 15 -40 0 -29 4 -40 15 -40
11 0 15 11 15 39 0 27 5 41 16 45 25 10 10 18 -36 20 -27 2 -40 -2 -40 -11z"/>
<path d="M1840 570 c0 -5 5 -30 12 -55 14 -52 36 -59 44 -15 7 31 24 32 24 1
0 -10 6 -23 13 -29 10 -9 17 1 32 43 10 30 16 58 12 61 -11 11 -27 -7 -27 -31
0 -13 -4 -27 -10 -30 -6 -3 -10 4 -10 17 0 30 -15 52 -29 44 -6 -4 -11 -18
-11 -31 0 -13 -4 -27 -10 -30 -5 -3 -10 3 -10 14 0 10 -3 26 -6 35 -7 18 -24
22 -24 6z"/>
<path d="M2016 528 c-24 -53 -24 -86 -1 -55 13 18 55 23 55 7 0 -5 6 -10 14
-10 11 0 10 11 -7 55 -11 30 -24 55 -29 55 -5 0 -20 -24 -32 -52z"/>
<path d="M2237 573 c-1 -1 0 -24 1 -52 4 -51 4 -51 38 -51 19 0 34 5 34 10 0
6 -11 10 -25 10 -14 0 -25 5 -25 10 0 6 9 10 20 10 11 0 20 5 20 10 0 6 -9 10
-20 10 -27 0 -25 18 3 22 30 4 18 21 -16 22 -16 1 -29 0 -30 -1z"/>
<path d="M800 521 c0 -28 5 -51 10 -51 6 0 10 10 10 23 1 21 1 21 21 -6 20
-25 48 -29 32 -4 -5 7 -8 28 -8 47 0 32 -3 35 -32 38 l-33 3 0 -50z m50 19 c0
-5 -7 -10 -15 -10 -8 0 -15 5 -15 10 0 6 7 10 15 10 8 0 15 -4 15 -10z"/>
<path d="M2120 520 c0 -39 3 -50 16 -50 11 0 15 6 11 20 -7 26 0 25 23 -2 10
-13 22 -20 26 -15 4 4 3 12 -3 18 -8 8 -9 16 -1 29 18 29 3 50 -37 50 l-35 0
0 -50z"/>
<path d="M934 529 c-10 -17 13 -36 27 -22 12 12 4 33 -11 33 -5 0 -12 -5 -16
-11z"/>
<path d="M1297 533 c-13 -12 -7 -33 8 -33 8 0 15 9 15 20 0 20 -11 26 -23 13z"/>
</g>
</svg>
